<?xml version="1.0" encoding="utf-8"?><svg version="1.1" id="Layer_1" xmlns="http://www.w3.org/2000/svg" xmlns:xlink="http://www.w3.org/1999/xlink" x="0px" y="0px" width="100" height="100" viewBox="0 0 32 32" enable-background="new 0 0 32 32" xml:space="preserve"><g fill="#870bec"><path id="path1" d="M18.054,23.463c-0.186,1.392-0.652,2.684-1.493,3.877C16,28.035,15.348,28.633,14.6,29.13   c-2.613,1.59-5.693,1.193-7.839-0.597c-0.56-0.696-0.747-1.392-0.747-1.691c0-0.793,0.466-1.589,1.119-1.987   c0.094-0.099,0.188-0.099,0.374-0.198c0.747-0.298,1.586-0.199,2.24,0.397c0.094,0.1,0.186,0.1,0.28,0.199   c0.84,0.796,1.959,1.192,2.987,1.293c1.026,0.098,2.146-0.2,3.08-0.696C16.841,25.153,17.587,24.358,18.054,23.463z M23.095,17.897   c1.026,0.795,1.865,1.987,2.333,3.28c0.279,0.894,0.466,1.788,0.466,2.782c0,3.182-1.866,5.865-4.48,6.957   c-0.839,0.199-1.492,0-1.772-0.197c-0.654-0.396-1.027-1.193-1.027-2.087v-0.398c0.095-0.795,0.653-1.591,1.401-1.889   c0.092,0,0.186-0.099,0.279-0.099c1.026-0.397,1.959-1.193,2.613-2.088c0.561-0.895,0.933-1.987,0.933-3.182   C23.935,19.786,23.654,18.692,23.095,17.897z M3.213,11.833c0.374,0,0.747,0.099,1.121,0.299c0.093,0.098,0.186,0.098,0.279,0.198   c0.653,0.497,0.934,1.392,0.84,2.187c0,0.1,0,0.199-0.093,0.298c-0.186,1.192,0,2.385,0.467,3.48   c0.466,0.993,1.213,1.887,2.146,2.483c0.934,0.598,1.96,0.796,2.894,0.796c-1.214,0.597-2.521,0.795-3.827,0.597   C6.2,22.071,5.36,21.774,4.52,21.277c-2.614-1.591-3.827-4.672-3.454-7.554c0.281-0.896,0.748-1.392,1.026-1.492   C2.466,11.933,2.84,11.833,3.213,11.833z M23.935,9.746c0.372,0,0.653,0,1.025,0.101c0.84,0.099,1.681,0.397,2.521,0.894   c2.613,1.59,3.828,4.671,3.453,7.555c-0.279,0.894-0.746,1.391-1.026,1.49c-0.654,0.396-1.493,0.396-2.24,0   c-0.093-0.1-0.187-0.1-0.279-0.2c-0.654-0.495-0.934-1.391-0.84-2.186c0-0.1,0-0.199,0.093-0.299c0.187-1.192,0-2.385-0.468-3.479   c-0.466-0.994-1.213-1.889-2.146-2.485c-0.933-0.596-1.961-0.795-2.894-0.795C21.973,9.945,23.001,9.746,23.935,9.746z    M21.041,1.794c1.586,0,3.08,0.597,4.292,1.59c0.561,0.696,0.748,1.392,0.748,1.691c0,0.794-0.468,1.59-1.121,1.987   c-0.093,0.1-0.186,0.1-0.372,0.199C23.84,7.56,23.001,7.46,22.347,6.864c-0.094-0.1-0.187-0.1-0.28-0.199   c-0.838-0.795-1.96-1.192-2.986-1.292c-1.026-0.1-2.146,0.198-3.08,0.694c-0.933,0.597-1.586,1.392-2.053,2.287   c0.186-1.391,0.652-2.684,1.493-3.876C16,3.783,16.652,3.186,17.401,2.69C18.613,2.092,19.827,1.794,21.041,1.794z M11.24,1   c0.467,0,0.84,0.1,1.026,0.298c0.653,0.397,1.027,1.192,1.027,2.086v0.398c-0.093,0.795-0.653,1.591-1.4,1.888   c-0.094,0-0.187,0.1-0.281,0.1c-1.026,0.398-1.96,1.193-2.52,2.088c-0.559,0.895-0.933,1.988-0.933,3.18   c0,1.095,0.279,2.188,0.84,3.082c-1.027-0.796-1.868-1.987-2.333-3.28C6.2,9.945,6.014,9.051,6.014,8.057   c0-3.181,1.867-5.865,4.479-6.958C10.773,1,10.96,1,11.24,1z"><animateTransform attributeName="transform" attributeType="XML" type="rotate" from="0, 16, 16" to="360, 16, 16" dur="1.5s" repeatCount="indefinite" /></path></g></svg>